<mxfile host="Electron" modified="2024-06-14T16:01:26.590Z" agent="Mozilla/5.0 (Macintosh; Intel Mac OS X 10_15_7) AppleWebKit/537.36 (KHTML, like Gecko) draw.io/24.5.3 Chrome/124.0.6367.207 Electron/30.0.6 Safari/537.36" etag="NV_6nHvD7QonW5IM8Clr" version="24.5.3" type="device">
  <diagram id="prtHgNgQTEPvFCAcTncT" name="Page-1">
    <mxGraphModel dx="2474" dy="2313" grid="1" gridSize="10" guides="1" tooltips="1" connect="1" arrows="1" fold="1" page="1" pageScale="1" pageWidth="1169" pageHeight="827" math="0" shadow="0">
      <root>
        <mxCell id="0" />
        <mxCell id="1" parent="0" />
        <mxCell id="IgVnPN9NRSkrWdJgGA2A-13" value="" style="rounded=0;whiteSpace=wrap;html=1;fillColor=#f5f5f5;fontColor=#333333;strokeColor=#666666;movable=0;resizable=0;rotatable=0;deletable=0;editable=0;locked=1;connectable=0;" parent="1" vertex="1">
          <mxGeometry x="931" y="-50" width="809" height="250" as="geometry" />
        </mxCell>
        <mxCell id="IgVnPN9NRSkrWdJgGA2A-22" value="" style="rounded=0;whiteSpace=wrap;html=1;fillColor=#f5f5f5;fontColor=#333333;strokeColor=#666666;movable=0;resizable=0;rotatable=0;deletable=0;editable=0;locked=1;connectable=0;" parent="1" vertex="1">
          <mxGeometry x="1740.5" y="-50" width="649.5" height="250" as="geometry" />
        </mxCell>
        <mxCell id="IgVnPN9NRSkrWdJgGA2A-30" value="" style="rounded=0;whiteSpace=wrap;html=1;fillColor=#f5f5f5;fontColor=#333333;strokeColor=#666666;movable=0;resizable=0;rotatable=0;deletable=0;editable=0;locked=1;connectable=0;" parent="1" vertex="1">
          <mxGeometry x="2390" y="-50" width="330" height="250" as="geometry" />
        </mxCell>
        <mxCell id="V1w6IO33_B5uVDaUKKrJ-2" value="" style="rounded=0;whiteSpace=wrap;html=1;fillColor=#f5f5f5;fontColor=#333333;strokeColor=#666666;movable=0;resizable=0;rotatable=0;deletable=0;editable=0;locked=1;connectable=0;" parent="1" vertex="1">
          <mxGeometry x="2720" y="-50" width="330" height="250" as="geometry" />
        </mxCell>
        <mxCell id="IgVnPN9NRSkrWdJgGA2A-43" value="Mojaloop Releases" style="rounded=0;whiteSpace=wrap;html=1;fontSize=18;fontStyle=1;startSize=100;horizontal=0;fontColor=#2D9BF0;movable=0;resizable=0;rotatable=0;deletable=0;editable=0;locked=1;connectable=0;" parent="1" vertex="1">
          <mxGeometry x="830.5" y="-50" width="100" height="250" as="geometry" />
        </mxCell>
        <mxCell id="IgVnPN9NRSkrWdJgGA2A-58" value="Foundation:&lt;br style=&quot;border-color: var(--border-color);&quot;&gt;&lt;span style=&quot;&quot;&gt;Quality Product&lt;/span&gt;" style="rounded=0;whiteSpace=wrap;html=1;fontSize=18;fontStyle=1;startSize=100;horizontal=0;fontColor=#F16E81;movable=0;resizable=0;rotatable=0;deletable=0;editable=0;locked=1;connectable=0;" parent="1" vertex="1">
          <mxGeometry x="830.5" y="930" width="100" height="489.99999999999994" as="geometry" />
        </mxCell>
        <mxCell id="IgVnPN9NRSkrWdJgGA2A-18" value="" style="rounded=0;whiteSpace=wrap;html=1;fillColor=#f5f5f5;fontColor=#333333;strokeColor=#666666;movable=0;resizable=0;rotatable=0;deletable=0;editable=0;locked=1;connectable=0;" parent="1" vertex="1">
          <mxGeometry x="931" y="930" width="809" height="489.99999999999994" as="geometry" />
        </mxCell>
        <mxCell id="IgVnPN9NRSkrWdJgGA2A-26" value="" style="rounded=0;whiteSpace=wrap;html=1;fillColor=#f5f5f5;fontColor=#333333;strokeColor=#666666;movable=0;resizable=0;rotatable=0;deletable=0;editable=0;locked=1;connectable=0;" parent="1" vertex="1">
          <mxGeometry x="1740.5" y="930" width="649.5" height="489.99999999999994" as="geometry" />
        </mxCell>
        <mxCell id="IgVnPN9NRSkrWdJgGA2A-34" value="" style="rounded=0;whiteSpace=wrap;html=1;fillColor=#f5f5f5;fontColor=#333333;strokeColor=#666666;movable=0;resizable=0;rotatable=0;deletable=0;editable=0;locked=1;connectable=0;" parent="1" vertex="1">
          <mxGeometry x="2390" y="930" width="330" height="489.99999999999994" as="geometry" />
        </mxCell>
        <mxCell id="V1w6IO33_B5uVDaUKKrJ-6" value="" style="rounded=0;whiteSpace=wrap;html=1;fillColor=#f5f5f5;fontColor=#333333;strokeColor=#666666;movable=0;resizable=0;rotatable=0;deletable=0;editable=0;locked=1;connectable=0;" parent="1" vertex="1">
          <mxGeometry x="2720" y="930" width="330" height="489.99999999999994" as="geometry" />
        </mxCell>
        <mxCell id="IgVnPN9NRSkrWdJgGA2A-56" value="Pillar 3:&lt;br style=&quot;border-color: var(--border-color);&quot;&gt;&lt;span style=&quot;&quot;&gt;Connect to Other Systems&lt;/span&gt;" style="rounded=0;whiteSpace=wrap;html=1;fontSize=18;fontStyle=1;startSize=100;horizontal=0;fontColor=#8FD14F;movable=0;resizable=0;rotatable=0;deletable=0;editable=0;locked=1;connectable=0;" parent="1" vertex="1">
          <mxGeometry x="830.5" y="580" width="100" height="350.00000000000006" as="geometry" />
        </mxCell>
        <mxCell id="IgVnPN9NRSkrWdJgGA2A-17" value="" style="rounded=0;whiteSpace=wrap;html=1;fillColor=#f5f5f5;fontColor=#333333;strokeColor=#666666;movable=0;resizable=0;rotatable=0;deletable=0;editable=0;locked=1;connectable=0;" parent="1" vertex="1">
          <mxGeometry x="931" y="580" width="809" height="350.00000000000006" as="geometry" />
        </mxCell>
        <mxCell id="IgVnPN9NRSkrWdJgGA2A-25" value="" style="rounded=0;whiteSpace=wrap;html=1;fillColor=#f5f5f5;fontColor=#333333;strokeColor=#666666;movable=0;resizable=0;rotatable=0;deletable=0;editable=0;locked=1;connectable=0;" parent="1" vertex="1">
          <mxGeometry x="1740.5" y="580" width="649.5" height="350.00000000000006" as="geometry" />
        </mxCell>
        <mxCell id="IgVnPN9NRSkrWdJgGA2A-33" value="" style="rounded=0;whiteSpace=wrap;html=1;fillColor=#f5f5f5;fontColor=#333333;strokeColor=#666666;movable=0;resizable=0;rotatable=0;deletable=0;editable=0;locked=1;connectable=0;" parent="1" vertex="1">
          <mxGeometry x="2390" y="580" width="330" height="350.00000000000006" as="geometry" />
        </mxCell>
        <mxCell id="V1w6IO33_B5uVDaUKKrJ-5" value="" style="rounded=0;whiteSpace=wrap;html=1;fillColor=#f5f5f5;fontColor=#333333;strokeColor=#666666;movable=0;resizable=0;rotatable=0;deletable=0;editable=0;locked=1;connectable=0;" parent="1" vertex="1">
          <mxGeometry x="2720" y="580" width="330" height="350.00000000000006" as="geometry" />
        </mxCell>
        <mxCell id="JybqgrPGp8Xl5-uRk0mp-1" value="&lt;font color=&quot;#0000cc&quot;&gt;Strategic Workstreams&lt;/font&gt;" style="rounded=0;whiteSpace=wrap;html=1;fontSize=18;fontStyle=1;startSize=100;horizontal=0;fontColor=#F16E81;movable=0;resizable=0;rotatable=0;deletable=0;editable=0;locked=1;connectable=0;" parent="1" vertex="1">
          <mxGeometry x="830.5" y="1420" width="100" height="190" as="geometry" />
        </mxCell>
        <mxCell id="JybqgrPGp8Xl5-uRk0mp-4" value="" style="rounded=0;whiteSpace=wrap;html=1;fillColor=#f5f5f5;fontColor=#333333;strokeColor=#666666;movable=0;resizable=0;rotatable=0;deletable=0;editable=0;locked=1;connectable=0;" parent="1" vertex="1">
          <mxGeometry x="931" y="1420" width="808.5" height="190" as="geometry" />
        </mxCell>
        <mxCell id="JybqgrPGp8Xl5-uRk0mp-5" value="" style="rounded=0;whiteSpace=wrap;html=1;fillColor=#f5f5f5;fontColor=#333333;strokeColor=#666666;movable=0;resizable=0;rotatable=0;deletable=0;editable=0;locked=1;connectable=0;" parent="1" vertex="1">
          <mxGeometry x="1740" y="1420" width="649.5" height="190" as="geometry" />
        </mxCell>
        <mxCell id="JybqgrPGp8Xl5-uRk0mp-6" value="" style="rounded=0;whiteSpace=wrap;html=1;fillColor=#f5f5f5;fontColor=#333333;strokeColor=#666666;movable=0;resizable=0;rotatable=0;deletable=0;editable=0;locked=1;connectable=0;container=1;" parent="1" vertex="1">
          <mxGeometry x="2389.5" y="1420" width="330" height="190" as="geometry" />
        </mxCell>
        <mxCell id="V1w6IO33_B5uVDaUKKrJ-7" value="" style="rounded=0;whiteSpace=wrap;html=1;fillColor=#f5f5f5;fontColor=#333333;strokeColor=#666666;movable=0;resizable=0;rotatable=0;deletable=0;editable=0;locked=1;connectable=0;" parent="1" vertex="1">
          <mxGeometry x="2719.5" y="1420" width="330" height="190" as="geometry" />
        </mxCell>
        <mxCell id="IgVnPN9NRSkrWdJgGA2A-15" value="" style="rounded=0;whiteSpace=wrap;html=1;fillColor=#f5f5f5;fontColor=#333333;strokeColor=#666666;movable=1;resizable=1;rotatable=1;deletable=1;editable=1;locked=0;connectable=1;" parent="1" vertex="1">
          <mxGeometry x="931" y="200" width="809" height="190" as="geometry" />
        </mxCell>
        <mxCell id="IgVnPN9NRSkrWdJgGA2A-16" value="" style="rounded=0;whiteSpace=wrap;html=1;fillColor=#f5f5f5;fontColor=#333333;strokeColor=#666666;movable=1;resizable=1;rotatable=1;deletable=1;editable=1;locked=0;connectable=1;" parent="1" vertex="1">
          <mxGeometry x="931" y="390" width="809" height="190" as="geometry" />
        </mxCell>
        <mxCell id="IgVnPN9NRSkrWdJgGA2A-24" value="" style="rounded=0;whiteSpace=wrap;html=1;fillColor=#f5f5f5;fontColor=#333333;strokeColor=#666666;movable=1;resizable=1;rotatable=1;deletable=1;editable=1;locked=0;connectable=1;" parent="1" vertex="1">
          <mxGeometry x="1740.5" y="390" width="649.5" height="190" as="geometry" />
        </mxCell>
        <mxCell id="IgVnPN9NRSkrWdJgGA2A-23" value="" style="rounded=0;whiteSpace=wrap;html=1;fillColor=#f5f5f5;fontColor=#333333;strokeColor=#666666;movable=1;resizable=1;rotatable=1;deletable=1;editable=1;locked=0;connectable=1;" parent="1" vertex="1">
          <mxGeometry x="1740.5" y="200" width="649.5" height="190" as="geometry" />
        </mxCell>
        <mxCell id="IgVnPN9NRSkrWdJgGA2A-31" value="" style="rounded=0;whiteSpace=wrap;html=1;fillColor=#f5f5f5;fontColor=#333333;strokeColor=#666666;movable=1;resizable=1;rotatable=1;deletable=1;editable=1;locked=0;connectable=1;" parent="1" vertex="1">
          <mxGeometry x="2390" y="200" width="330" height="190" as="geometry" />
        </mxCell>
        <mxCell id="IgVnPN9NRSkrWdJgGA2A-32" value="" style="rounded=0;whiteSpace=wrap;html=1;fillColor=#f5f5f5;fontColor=#333333;strokeColor=#666666;movable=1;resizable=1;rotatable=1;deletable=1;editable=1;locked=0;connectable=1;" parent="1" vertex="1">
          <mxGeometry x="2390" y="390" width="330" height="190" as="geometry" />
        </mxCell>
        <mxCell id="V1w6IO33_B5uVDaUKKrJ-3" value="" style="rounded=0;whiteSpace=wrap;html=1;fillColor=#f5f5f5;fontColor=#333333;strokeColor=#666666;movable=1;resizable=1;rotatable=1;deletable=1;editable=1;locked=0;connectable=1;" parent="1" vertex="1">
          <mxGeometry x="2720" y="200" width="330" height="190" as="geometry" />
        </mxCell>
        <mxCell id="V1w6IO33_B5uVDaUKKrJ-4" value="" style="rounded=0;whiteSpace=wrap;html=1;fillColor=#f5f5f5;fontColor=#333333;strokeColor=#666666;movable=1;resizable=1;rotatable=1;deletable=1;editable=1;locked=0;connectable=1;" parent="1" vertex="1">
          <mxGeometry x="2720" y="390" width="330" height="190" as="geometry" />
        </mxCell>
        <mxCell id="IgVnPN9NRSkrWdJgGA2A-61" value="Mojaloop&#xa;Baobab" style="verticalLabelPosition=middle;verticalAlign=middle;shape=offPageConnector;rounded=1;size=0.5;fillColor=#2D9BF0;labelPosition=center;align=center;spacingBottom=13;fontColor=#FFFFFF;fontStyle=1;fontSize=14;" parent="1" vertex="1">
          <mxGeometry x="2350" y="-20" width="80" height="80" as="geometry" />
        </mxCell>
        <mxCell id="dNxyNK7c78bLwvsdeMH5-27" value="" style="edgeStyle=orthogonalEdgeStyle;rounded=0;orthogonalLoop=1;jettySize=auto;html=1;dashed=1;endArrow=none;endFill=0;" parent="1" edge="1">
          <mxGeometry relative="1" as="geometry">
            <mxPoint x="300" y="270" as="targetPoint" />
          </mxGeometry>
        </mxCell>
        <mxCell id="dNxyNK7c78bLwvsdeMH5-31" style="edgeStyle=orthogonalEdgeStyle;rounded=0;orthogonalLoop=1;jettySize=auto;html=1;endArrow=classic;endFill=1;" parent="1" edge="1">
          <mxGeometry relative="1" as="geometry">
            <mxPoint x="420" y="280" as="sourcePoint" />
          </mxGeometry>
        </mxCell>
        <mxCell id="dNxyNK7c78bLwvsdeMH5-35" style="edgeStyle=orthogonalEdgeStyle;rounded=0;orthogonalLoop=1;jettySize=auto;html=1;endArrow=classic;endFill=1;" parent="1" edge="1">
          <mxGeometry relative="1" as="geometry">
            <mxPoint x="690" y="460" as="targetPoint" />
          </mxGeometry>
        </mxCell>
        <mxCell id="dNxyNK7c78bLwvsdeMH5-38" style="edgeStyle=orthogonalEdgeStyle;rounded=0;orthogonalLoop=1;jettySize=auto;html=1;endArrow=classic;endFill=1;" parent="1" edge="1">
          <mxGeometry relative="1" as="geometry">
            <Array as="points">
              <mxPoint x="300" y="460" />
              <mxPoint x="520" y="460" />
            </Array>
            <mxPoint x="520" y="430" as="targetPoint" />
          </mxGeometry>
        </mxCell>
        <mxCell id="dNxyNK7c78bLwvsdeMH5-25" value="" style="edgeStyle=orthogonalEdgeStyle;rounded=0;orthogonalLoop=1;jettySize=auto;html=1;" parent="1" edge="1">
          <mxGeometry relative="1" as="geometry">
            <mxPoint x="260" y="180" as="targetPoint" />
          </mxGeometry>
        </mxCell>
        <mxCell id="dNxyNK7c78bLwvsdeMH5-33" value="" style="edgeStyle=orthogonalEdgeStyle;rounded=0;orthogonalLoop=1;jettySize=auto;html=1;endArrow=classic;endFill=1;" parent="1" edge="1">
          <mxGeometry relative="1" as="geometry">
            <mxPoint x="460" y="180" as="sourcePoint" />
          </mxGeometry>
        </mxCell>
        <mxCell id="dNxyNK7c78bLwvsdeMH5-37" value="" style="edgeStyle=orthogonalEdgeStyle;rounded=0;orthogonalLoop=1;jettySize=auto;html=1;endArrow=classic;endFill=1;" parent="1" edge="1">
          <mxGeometry relative="1" as="geometry">
            <mxPoint x="650" y="490" as="sourcePoint" />
          </mxGeometry>
        </mxCell>
        <mxCell id="dNxyNK7c78bLwvsdeMH5-29" value="" style="edgeStyle=orthogonalEdgeStyle;rounded=0;orthogonalLoop=1;jettySize=auto;html=1;endArrow=classic;endFill=1;" parent="1" edge="1">
          <mxGeometry relative="1" as="geometry">
            <mxPoint x="400" y="260" as="targetPoint" />
          </mxGeometry>
        </mxCell>
        <mxCell id="IgVnPN9NRSkrWdJgGA2A-1" value="Mojaloop&#xa;Zambezi&#x9;&#xa;V16.1" style="verticalLabelPosition=middle;verticalAlign=middle;shape=offPageConnector;rounded=1;size=0.5;fillColor=#2D9BF0;labelPosition=center;align=center;spacingBottom=13;fontColor=#FFFFFF;fontStyle=1;fontSize=14;" parent="1" vertex="1">
          <mxGeometry x="1452.5" y="-20" width="80" height="80" as="geometry" />
        </mxCell>
        <mxCell id="IgVnPN9NRSkrWdJgGA2A-78" value="Core and Releases&#xa;(vNext Codebase)" style="rounded=1;fillColor=#F16E81;fontSize=14;fontStyle=1;fontColor=#ffffff;" parent="1" vertex="1">
          <mxGeometry x="2409.5" y="1300" width="640" height="40" as="geometry" />
        </mxCell>
        <mxCell id="IgVnPN9NRSkrWdJgGA2A-89" value="Mojaloop&#xa;Meerkat" style="verticalLabelPosition=middle;verticalAlign=middle;shape=offPageConnector;rounded=1;size=0.5;fillColor=#2D9BF0;labelPosition=center;align=center;spacingBottom=13;fontColor=#FFFFFF;fontStyle=1;fontSize=14;" parent="1" vertex="1">
          <mxGeometry x="2680" y="-20" width="80" height="80" as="geometry" />
        </mxCell>
        <mxCell id="IgVnPN9NRSkrWdJgGA2A-97" value="Mojaloop&#xa;Mekong" style="verticalLabelPosition=middle;verticalAlign=middle;shape=offPageConnector;rounded=1;size=0.5;fillColor=#2D9BF0;labelPosition=center;align=center;spacingBottom=13;fontColor=#FFFFFF;fontStyle=1" parent="1" vertex="1">
          <mxGeometry x="3000" y="-20" width="80" height="80" as="geometry" />
        </mxCell>
        <mxCell id="IgVnPN9NRSkrWdJgGA2A-103" value="Platform Quality and Security" style="rounded=1;fillColor=#F16E81;fontSize=14;fontStyle=1;fontColor=#ffffff;" parent="1" vertex="1">
          <mxGeometry x="939.5" y="1360" width="1430" height="40" as="geometry" />
        </mxCell>
        <mxCell id="IgVnPN9NRSkrWdJgGA2A-104" value="Platform Quality and Security" style="rounded=1;fillColor=#F16E81;fontSize=14;fontStyle=1;fontColor=#ffffff;" parent="1" vertex="1">
          <mxGeometry x="2409.5" y="1360" width="640" height="40" as="geometry" />
        </mxCell>
        <mxCell id="JybqgrPGp8Xl5-uRk0mp-8" value="Cross-Border SIG" style="rounded=1;fillColor=#0000CC;fontSize=14;movable=1;resizable=1;rotatable=1;deletable=1;editable=1;locked=0;connectable=1;fontStyle=1;fontColor=#ffffff;" parent="1" vertex="1">
          <mxGeometry x="940" y="1495" width="2099.5" height="40" as="geometry" />
        </mxCell>
        <mxCell id="43MLDUuVcQ6IggmY8hbu-4" value="&lt;font style=&quot;font-size: 14px;&quot;&gt;&lt;b style=&quot;font-size: 14px;&quot;&gt;Proxies for SWIFT, Nexus&lt;br style=&quot;font-size: 14px;&quot;&gt;&lt;/b&gt;&lt;/font&gt;" style="rounded=1;whiteSpace=wrap;html=1;fillColor=#8FD14F;fontSize=14;sketch=1;curveFitting=1;jiggle=2;fontColor=#000000;" parent="1" vertex="1">
          <mxGeometry x="2760" y="600" width="290" height="40" as="geometry" />
        </mxCell>
        <mxCell id="43MLDUuVcQ6IggmY8hbu-7" value="&lt;font style=&quot;font-size: 14px;&quot;&gt;&lt;b style=&quot;font-size: 14px;&quot;&gt;Support for domestic debit (domestic and international payment schemes)&lt;br style=&quot;font-size: 14px;&quot;&gt;&lt;/b&gt;&lt;/font&gt;" style="rounded=1;whiteSpace=wrap;html=1;fillColor=#8FD14F;fontSize=14;sketch=1;curveFitting=1;jiggle=2;fontColor=#000000;" parent="1" vertex="1">
          <mxGeometry x="2590" y="730" width="460" height="40" as="geometry" />
        </mxCell>
        <mxCell id="43MLDUuVcQ6IggmY8hbu-10" value="&lt;font style=&quot;font-size: 14px;&quot;&gt;&lt;b style=&quot;font-size: 14px;&quot;&gt;AISP Support&lt;br&gt;(Build on PISP foundation)&lt;br&gt;&lt;/b&gt;&lt;/font&gt;" style="rounded=1;whiteSpace=wrap;html=1;fillColor=#EEA213;fontSize=14;sketch=1;curveFitting=1;jiggle=2;fontColor=#000000;spacingRight=36;" parent="1" vertex="1">
          <mxGeometry x="2574.75" y="413.5" width="360" height="40.78" as="geometry" />
        </mxCell>
        <mxCell id="yxyo1WbGfhmX1DtEHOXv-1" value="&lt;font style=&quot;font-size: 14px;&quot;&gt;&lt;b style=&quot;font-size: 14px;&quot;&gt;G2P: Extend to other forms of digital ID&lt;br style=&quot;font-size: 14px;&quot;&gt;&lt;/b&gt;&lt;/font&gt;" style="rounded=1;whiteSpace=wrap;html=1;fillColor=#8FD14F;fontSize=14;sketch=1;curveFitting=1;jiggle=2;fontColor=#000000;" parent="1" vertex="1">
          <mxGeometry x="2470" y="660" width="450" height="40" as="geometry" />
        </mxCell>
        <mxCell id="v9kGifD7mZ3uiw050cPY-1" value="&lt;font style=&quot;font-size: 14px;&quot;&gt;&lt;b style=&quot;font-size: 14px;&quot;&gt;Alias Resolution: Handling duplicate &quot;resolutions&quot;, managing beneficiary preferences, allowing DFSPs or beneficiaries to manage those preferences.&lt;br style=&quot;font-size: 14px;&quot;&gt;&lt;/b&gt;&lt;/font&gt;" style="rounded=1;whiteSpace=wrap;html=1;fillColor=#8FD14F;fontSize=14;sketch=1;curveFitting=1;jiggle=2;fontColor=#000000;" parent="1" vertex="1">
          <mxGeometry x="2420" y="860" width="620" height="40" as="geometry" />
        </mxCell>
        <mxCell id="IgVnPN9NRSkrWdJgGA2A-40" value="Core and Releases&#xa;(vNow Codebase)" style="rounded=1;fillColor=#F16E81;fontSize=14;fontStyle=1;fontColor=#ffffff;" parent="1" vertex="1">
          <mxGeometry x="939.5" y="1300" width="1430" height="40" as="geometry" />
        </mxCell>
        <mxCell id="S1ja_g8u9IfPUK_eCeuM-4" value="Performance Optimisation" style="rounded=1;fillColor=#F16E81;fontSize=14;fontStyle=1;fontColor=#ffffff;whiteSpace=wrap;" parent="1" vertex="1">
          <mxGeometry x="940" y="1240" width="2109.5" height="40" as="geometry" />
        </mxCell>
        <mxCell id="43MLDUuVcQ6IggmY8hbu-1" value="&lt;font style=&quot;font-size: 14px;&quot;&gt;&lt;b style=&quot;font-size: 14px;&quot;&gt;FRMS PoC for Pilot or Live Mojaloop Deployment&lt;/b&gt;&lt;/font&gt;" style="rounded=1;whiteSpace=wrap;html=1;fillColor=#F14725;fontSize=14;gradientColor=none;glass=0;shadow=0;fontColor=#FFFFFF;" parent="1" vertex="1">
          <mxGeometry x="970" y="310" width="960" height="40" as="geometry" />
        </mxCell>
        <mxCell id="S1ja_g8u9IfPUK_eCeuM-1" value="&lt;b&gt;Core:&lt;/b&gt;&lt;div&gt;Performance enhancements, improved release automation, PQS enhancements, security patches.&lt;br&gt;&lt;div&gt;&lt;b&gt;Additional Features:&lt;/b&gt;&lt;/div&gt;&lt;div&gt;Merchant payments&lt;span style=&quot;caret-color: rgb(33, 33, 33); color: rgb(33, 33, 33); font-family: Calibri, sans-serif; font-size: 16px; text-align: start;&quot;&gt;&lt;/span&gt;&lt;/div&gt;&lt;/div&gt;" style="rounded=0;whiteSpace=wrap;html=1;fontSize=16;" parent="1" vertex="1">
          <mxGeometry x="1360" y="50" width="270" height="120" as="geometry" />
        </mxCell>
        <mxCell id="IgVnPN9NRSkrWdJgGA2A-52" value="Pillar 1:&lt;br style=&quot;border-color: var(--border-color);&quot;&gt;&lt;span style=&quot;&quot;&gt;Make Adoption&lt;/span&gt;&lt;br style=&quot;border-color: var(--border-color);&quot;&gt;&lt;span style=&quot;&quot;&gt;Easier&lt;/span&gt;" style="rounded=0;whiteSpace=wrap;html=1;fontSize=18;fontStyle=1;startSize=100;horizontal=0;fontColor=#F14725;movable=0;resizable=0;rotatable=0;deletable=0;editable=0;locked=1;connectable=0;" parent="1" vertex="1">
          <mxGeometry x="830.5" y="200" width="100" height="190" as="geometry" />
        </mxCell>
        <mxCell id="IgVnPN9NRSkrWdJgGA2A-54" value="&lt;font color=&quot;#eea213&quot;&gt;Pillar 2:&lt;br style=&quot;border-color: var(--border-color);&quot;&gt;Achieve Scale&lt;/font&gt;" style="rounded=0;whiteSpace=wrap;html=1;fontSize=18;fontStyle=1;startSize=100;horizontal=0;fontColor=#F14725;movable=0;resizable=0;rotatable=0;deletable=0;editable=0;locked=1;connectable=0;" parent="1" vertex="1">
          <mxGeometry x="830.5" y="390" width="100" height="190" as="geometry" />
        </mxCell>
        <mxCell id="myLwM58ghnlwXmR5rfqZ-14" value="&lt;b&gt;Core:&lt;/b&gt;&lt;div&gt;First release built on&amp;nbsp; vNext codebase&lt;span style=&quot;caret-color: rgb(33, 33, 33); color: rgb(33, 33, 33); font-family: Calibri, sans-serif; font-size: 16px; text-align: start;&quot;&gt;&lt;/span&gt;&lt;/div&gt;" style="rounded=0;whiteSpace=wrap;html=1;fontSize=16;" parent="1" vertex="1">
          <mxGeometry x="2320" y="50" width="140" height="90" as="geometry" />
        </mxCell>
        <mxCell id="myLwM58ghnlwXmR5rfqZ-15" value="&lt;b&gt;Core:&lt;/b&gt;&lt;div&gt;Native ISO 20022,&amp;nbsp;&lt;span style=&quot;background-color: initial;&quot;&gt;Language Localisation, maintenance fixes&lt;/span&gt;&lt;/div&gt;&lt;div&gt;&lt;b&gt;Additional Features:&lt;/b&gt;&lt;/div&gt;&lt;div&gt;Proxies for PAPSS and TCIB&lt;span style=&quot;caret-color: rgb(33, 33, 33); color: rgb(33, 33, 33); font-family: Calibri, sans-serif; font-size: 16px; text-align: start;&quot;&gt;&lt;/span&gt;&lt;/div&gt;" style="rounded=0;whiteSpace=wrap;html=1;fontSize=16;" parent="1" vertex="1">
          <mxGeometry x="2610" y="48" width="225" height="110" as="geometry" />
        </mxCell>
        <mxCell id="rWjNOIkeKGWhdlIpbKfT-1" value="Mojaloop&#xa;Irrawaddy&#xa;V17.0" style="verticalLabelPosition=middle;verticalAlign=middle;shape=offPageConnector;rounded=1;size=0.5;fillColor=#2D9BF0;labelPosition=center;align=center;spacingBottom=13;fontColor=#FFFFFF;fontStyle=1;fontSize=14;" parent="1" vertex="1">
          <mxGeometry x="1700.25" y="-20" width="80" height="80" as="geometry" />
        </mxCell>
        <mxCell id="rWjNOIkeKGWhdlIpbKfT-3" value="&lt;b&gt;Core:&lt;/b&gt;&lt;div&gt;Support for FX,&amp;nbsp;&lt;span style=&quot;background-color: initial;&quot;&gt;performance enhancements,&amp;nbsp; maintenance fixes&lt;/span&gt;&lt;/div&gt;&lt;div&gt;&lt;b&gt;Additional Features:&amp;nbsp;&lt;/b&gt;&lt;/div&gt;&lt;div&gt;G2P Support&lt;span style=&quot;caret-color: rgb(33, 33, 33); color: rgb(33, 33, 33); font-family: Calibri, sans-serif; font-size: 16px; text-align: start;&quot;&gt;&lt;/span&gt;&lt;/div&gt;" style="rounded=0;whiteSpace=wrap;html=1;fontSize=16;" parent="1" vertex="1">
          <mxGeometry x="1636.69" y="50" width="207.12" height="120" as="geometry" />
        </mxCell>
        <mxCell id="jTy2H-9CaO5OAL5QqozL-3" value="Mojaloop&#xa;Limpopo&#xa;V18.0" style="verticalLabelPosition=middle;verticalAlign=middle;shape=offPageConnector;rounded=1;size=0.5;fillColor=#2D9BF0;labelPosition=center;align=center;spacingBottom=13;fontColor=#FFFFFF;fontStyle=1;fontSize=14;" parent="1" vertex="1">
          <mxGeometry x="2135" y="-20" width="80" height="80" as="geometry" />
        </mxCell>
        <mxCell id="pBIU8CeWxCqfokyOlO5Z-4" value="&lt;b&gt;Core:&lt;/b&gt;&lt;div&gt;Next Gen Settlement, PISP 2.0,&amp;nbsp;&amp;nbsp;Multi-Scheme, Timezone localisation,&amp;nbsp;maintenance fixes&lt;/div&gt;&lt;div&gt;&lt;b&gt;Additional Features:&lt;br&gt;&lt;/b&gt;&lt;div&gt;Merchant Payments 2.0&lt;/div&gt;&lt;/div&gt;" style="rounded=0;whiteSpace=wrap;html=1;fontSize=16;" parent="1" vertex="1">
          <mxGeometry x="2070" y="48" width="232" height="122" as="geometry" />
        </mxCell>
        <mxCell id="jTy2H-9CaO5OAL5QqozL-1" value="Mojaloop&#xa;Congo&#xa;V16.0" style="verticalLabelPosition=middle;verticalAlign=middle;shape=offPageConnector;rounded=1;size=0.5;fillColor=#2D9BF0;labelPosition=center;align=center;spacingBottom=13;fontColor=#FFFFFF;fontStyle=1;fontSize=14;" parent="1" vertex="1">
          <mxGeometry x="890" y="-20" width="80" height="80" as="geometry" />
        </mxCell>
        <mxCell id="myLwM58ghnlwXmR5rfqZ-19" value="&lt;font style=&quot;font-size: 14px;&quot;&gt;&lt;b style=&quot;font-size: 14px;&quot;&gt;&lt;br&gt;&lt;/b&gt;&lt;/font&gt;" style="rounded=1;whiteSpace=wrap;html=1;fillColor=#FFCCCC;fontSize=14;fillStyle=auto;fontColor=#FFFFFF;glass=0;shadow=0;textShadow=0;" parent="1" vertex="1">
          <mxGeometry x="1359.5" y="241" width="1350" height="40" as="geometry" />
        </mxCell>
        <mxCell id="rpubGPMqXumcgfwPf0aL-2" value="&lt;font style=&quot;font-size: 14px;&quot;&gt;&lt;b style=&quot;font-size: 14px;&quot;&gt;Participation Tools:&lt;br&gt;On-Prem Enhancements, Payment Manager On-Prem&lt;br&gt;&lt;/b&gt;&lt;/font&gt;" style="rounded=1;whiteSpace=wrap;html=1;fillColor=#F14725;fontSize=14;fillStyle=auto;fontColor=#FFFFFF;glass=0;shadow=0;textShadow=0;" parent="1" vertex="1">
          <mxGeometry x="970" y="241" width="1350" height="40" as="geometry" />
        </mxCell>
        <mxCell id="myLwM58ghnlwXmR5rfqZ-20" value="&lt;font style=&quot;font-size: 14px;&quot;&gt;&lt;b style=&quot;font-size: 14px;&quot;&gt;PISP V2.0&lt;br&gt;&lt;/b&gt;&lt;/font&gt;" style="rounded=1;whiteSpace=wrap;html=1;fillColor=#EED78A;fontSize=14;fontColor=#FFFFFF;" parent="1" vertex="1">
          <mxGeometry x="1495" y="414" width="895" height="40.78" as="geometry" />
        </mxCell>
        <mxCell id="rWjNOIkeKGWhdlIpbKfT-11" value="&lt;font style=&quot;font-size: 14px;&quot;&gt;&lt;b style=&quot;font-size: 14px;&quot;&gt;PISP V2.0&lt;br&gt;&lt;/b&gt;&lt;/font&gt;" style="rounded=1;whiteSpace=wrap;html=1;fillColor=#EEA213;fontSize=14;fontColor=#FFFFFF;" parent="1" vertex="1">
          <mxGeometry x="1185" y="414" width="895" height="40.78" as="geometry" />
        </mxCell>
        <mxCell id="myLwM58ghnlwXmR5rfqZ-21" value="&lt;font style=&quot;font-size: 14px;&quot;&gt;&lt;b style=&quot;font-size: 14px;&quot;&gt;PISP V2.0&lt;br&gt;&lt;/b&gt;&lt;/font&gt;" style="rounded=1;whiteSpace=wrap;html=1;fillColor=#EED78A;fontSize=14;fontColor=#FFFFFF;" parent="1" vertex="1">
          <mxGeometry x="1495" y="500" width="895" height="40.78" as="geometry" />
        </mxCell>
        <mxCell id="43MLDUuVcQ6IggmY8hbu-8" value="&lt;font style=&quot;font-size: 14px;&quot;&gt;&lt;b style=&quot;font-size: 14px;&quot;&gt;Merchant Payments V2&lt;br&gt;&lt;/b&gt;&lt;/font&gt;" style="rounded=1;whiteSpace=wrap;html=1;fillColor=#EEA213;fontSize=14;fontColor=#FFFFFF;" parent="1" vertex="1">
          <mxGeometry x="1069" y="500" width="1011" height="40.78" as="geometry" />
        </mxCell>
        <mxCell id="myLwM58ghnlwXmR5rfqZ-22" value="&lt;font style=&quot;font-size: 14px;&quot;&gt;&lt;b style=&quot;font-size: 14px;&quot;&gt;&lt;br style=&quot;font-size: 14px;&quot;&gt;&lt;/b&gt;&lt;/font&gt;" style="rounded=1;whiteSpace=wrap;html=1;fillColor=#DDFFBF;fontSize=14;fontColor=#FFFFFF;" parent="1" vertex="1">
          <mxGeometry x="1540" y="600" width="1180" height="40" as="geometry" />
        </mxCell>
        <mxCell id="43MLDUuVcQ6IggmY8hbu-3" value="&lt;font style=&quot;font-size: 14px;&quot;&gt;&lt;b style=&quot;font-size: 14px;&quot;&gt;Proxies for PAPSS, TCIB&lt;br style=&quot;font-size: 14px;&quot;&gt;&lt;/b&gt;&lt;/font&gt;" style="rounded=1;whiteSpace=wrap;html=1;fillColor=#8FD14F;fontSize=14;fontColor=#FFFFFF;" parent="1" vertex="1">
          <mxGeometry x="1520" y="600" width="850" height="40" as="geometry" />
        </mxCell>
        <mxCell id="myLwM58ghnlwXmR5rfqZ-33" value="&lt;font style=&quot;font-size: 14px;&quot;&gt;&lt;b style=&quot;font-size: 14px;&quot;&gt;&lt;br style=&quot;font-size: 14px;&quot;&gt;&lt;/b&gt;&lt;/font&gt;" style="rounded=1;whiteSpace=wrap;html=1;fillColor=#DDFFBF;fontSize=14;fontColor=#FFFFFF;" parent="1" vertex="1">
          <mxGeometry x="1420" y="730" width="1120" height="40" as="geometry" />
        </mxCell>
        <mxCell id="FyJQAvAHIrSmudNcF5cX-1" value="&lt;font style=&quot;font-size: 14px;&quot;&gt;&lt;b style=&quot;font-size: 14px;&quot;&gt;Multi-Scheme Deployment Support&lt;br style=&quot;font-size: 14px;&quot;&gt;&lt;/b&gt;&lt;/font&gt;" style="rounded=1;whiteSpace=wrap;html=1;fillColor=#8FD14F;fontSize=14;fontColor=#FFFFFF;" parent="1" vertex="1">
          <mxGeometry x="1319.5" y="730" width="830.5" height="40" as="geometry" />
        </mxCell>
        <mxCell id="myLwM58ghnlwXmR5rfqZ-34" value="&lt;font style=&quot;font-size: 14px;&quot;&gt;&lt;b style=&quot;font-size: 14px;&quot;&gt;&lt;br style=&quot;font-size: 14px;&quot;&gt;&lt;/b&gt;&lt;/font&gt;" style="rounded=1;whiteSpace=wrap;html=1;fillColor=#DDFFBF;fontSize=14;fontColor=#FFFFFF;" parent="1" vertex="1">
          <mxGeometry x="1615" y="795" width="1120" height="40" as="geometry" />
        </mxCell>
        <mxCell id="43MLDUuVcQ6IggmY8hbu-5" value="&lt;font style=&quot;font-size: 14px;&quot;&gt;&lt;b style=&quot;font-size: 14px;&quot;&gt;Native ISO 20022&lt;br style=&quot;font-size: 14px;&quot;&gt;&lt;/b&gt;&lt;/font&gt;" style="rounded=1;whiteSpace=wrap;html=1;fillColor=#8FD14F;fontSize=14;fontColor=#FFFFFF;" parent="1" vertex="1">
          <mxGeometry x="1359.5" y="795" width="1020.5" height="40" as="geometry" />
        </mxCell>
        <mxCell id="myLwM58ghnlwXmR5rfqZ-35" value="&lt;font style=&quot;font-size: 14px;&quot;&gt;&lt;b style=&quot;font-size: 14px;&quot;&gt;&lt;br style=&quot;font-size: 14px;&quot;&gt;&lt;/b&gt;&lt;/font&gt;" style="rounded=1;whiteSpace=wrap;html=1;fillColor=#DDFFBF;fontSize=14;fontColor=#FFFFFF;" parent="1" vertex="1">
          <mxGeometry x="1270" y="860" width="1120" height="40" as="geometry" />
        </mxCell>
        <mxCell id="pBIU8CeWxCqfokyOlO5Z-1" value="Foreign Exchange &#xa;vNext" style="rounded=1;fillColor=#8FD14F;fontSize=14;fontColor=#ffffff;fontStyle=1" parent="1" vertex="1">
          <mxGeometry x="960" y="860" width="1069.5" height="40" as="geometry" />
        </mxCell>
        <mxCell id="myLwM58ghnlwXmR5rfqZ-36" value="&lt;font style=&quot;font-size: 14px;&quot;&gt;&lt;b style=&quot;font-size: 14px;&quot;&gt;&lt;br style=&quot;font-size: 14px;&quot;&gt;&lt;/b&gt;&lt;/font&gt;" style="rounded=1;whiteSpace=wrap;html=1;fillColor=#DDFFBF;fontSize=14;fontColor=#FFFFFF;" parent="1" vertex="1">
          <mxGeometry x="1210" y="660" width="1180" height="40" as="geometry" />
        </mxCell>
        <mxCell id="IgVnPN9NRSkrWdJgGA2A-69" value="Foreign Exchange &#xa;(vNow)" style="rounded=1;fillColor=#8FD14F;fontSize=14;fontColor=#ffffff;fontStyle=1" parent="1" vertex="1">
          <mxGeometry x="960" y="660" width="900" height="40" as="geometry" />
        </mxCell>
        <mxCell id="myLwM58ghnlwXmR5rfqZ-37" value="&lt;font style=&quot;font-size: 14px;&quot;&gt;&lt;b style=&quot;font-size: 14px;&quot;&gt;&lt;br style=&quot;font-size: 14px;&quot;&gt;&lt;/b&gt;&lt;/font&gt;" style="rounded=1;whiteSpace=wrap;html=1;fillColor=#DDFFBF;fontSize=14;fontColor=#FFFFFF;" parent="1" vertex="1">
          <mxGeometry x="1140" y="600" width="331" height="40" as="geometry" />
        </mxCell>
        <mxCell id="IgVnPN9NRSkrWdJgGA2A-75" value="G2P Connect / MOSIP Integration" style="rounded=1;fillColor=#8FD14F;fontSize=14;fontColor=#ffffff;fontStyle=1;whiteSpace=wrap;" parent="1" vertex="1">
          <mxGeometry x="960" y="600" width="320" height="40" as="geometry" />
        </mxCell>
        <mxCell id="myLwM58ghnlwXmR5rfqZ-38" value="&lt;font style=&quot;font-size: 14px;&quot;&gt;&lt;b style=&quot;font-size: 14px;&quot;&gt;&lt;br&gt;&lt;/b&gt;&lt;/font&gt;" style="rounded=1;whiteSpace=wrap;html=1;fillColor=#FFCCCC;fontSize=14;fillStyle=auto;fontColor=#FFFFFF;glass=0;shadow=0;textShadow=0;" parent="1" vertex="1">
          <mxGeometry x="1040" y="940" width="1350" height="40" as="geometry" />
        </mxCell>
        <mxCell id="IgVnPN9NRSkrWdJgGA2A-73" value="Next Gen Settlement, including Admin APIs (and Tigerbeetle Integration)" style="rounded=1;fillColor=#F16E81;fontSize=14;fontColor=#ffffff;fontStyle=1;whiteSpace=wrap;" parent="1" vertex="1">
          <mxGeometry x="940.5" y="940" width="960" height="40" as="geometry" />
        </mxCell>
        <mxCell id="myLwM58ghnlwXmR5rfqZ-39" value="&lt;font style=&quot;font-size: 14px;&quot;&gt;&lt;b style=&quot;font-size: 14px;&quot;&gt;&lt;br&gt;&lt;/b&gt;&lt;/font&gt;" style="rounded=1;whiteSpace=wrap;html=1;fillColor=#FFCCCC;fontSize=14;fillStyle=auto;fontColor=#FFFFFF;glass=0;shadow=0;textShadow=0;" parent="1" vertex="1">
          <mxGeometry x="1860" y="1010" width="630" height="40" as="geometry" />
        </mxCell>
        <mxCell id="myLwM58ghnlwXmR5rfqZ-10" value="Next Gen Settlement, integration with the vNow Codebase" style="rounded=1;fillColor=#F16E81;fontSize=14;fontColor=#ffffff;fontStyle=1;whiteSpace=wrap;" parent="1" vertex="1">
          <mxGeometry x="1680.5" y="1010" width="429.5" height="40" as="geometry" />
        </mxCell>
        <mxCell id="myLwM58ghnlwXmR5rfqZ-40" value="&lt;font style=&quot;font-size: 14px;&quot;&gt;&lt;b style=&quot;font-size: 14px;&quot;&gt;&lt;br&gt;&lt;/b&gt;&lt;/font&gt;" style="rounded=1;whiteSpace=wrap;html=1;fillColor=#FFCCCC;fontSize=14;fillStyle=auto;fontColor=#FFFFFF;glass=0;shadow=0;textShadow=0;" parent="1" vertex="1">
          <mxGeometry x="2089" y="1070" width="630" height="40" as="geometry" />
        </mxCell>
        <mxCell id="ed1PrrQom8r24ae05zqm-4" value="vNext Codebase" style="rounded=1;fillColor=#F16E81;fontSize=14;fontStyle=1;fontColor=#ffffff;whiteSpace=wrap;" parent="1" vertex="1">
          <mxGeometry x="939.5" y="1070" width="1429.5" height="40" as="geometry" />
        </mxCell>
        <mxCell id="myLwM58ghnlwXmR5rfqZ-41" value="&lt;font style=&quot;font-size: 14px;&quot;&gt;&lt;b style=&quot;font-size: 14px;&quot;&gt;&lt;br&gt;&lt;/b&gt;&lt;/font&gt;" style="rounded=1;whiteSpace=wrap;html=1;fillColor=#FFCCCC;fontSize=14;fillStyle=auto;fontColor=#FFFFFF;glass=0;shadow=0;textShadow=0;" parent="1" vertex="1">
          <mxGeometry x="2304.25" y="1130" width="630" height="40" as="geometry" />
        </mxCell>
        <mxCell id="myLwM58ghnlwXmR5rfqZ-11" value="&lt;font style=&quot;font-size: 14px;&quot;&gt;&lt;b style=&quot;font-size: 14px;&quot;&gt;Language Locaisation&lt;/b&gt;&lt;/font&gt;" style="rounded=1;whiteSpace=wrap;html=1;fillColor=#F16E81;fontSize=14;fontColor=#FFFFFF;" parent="1" vertex="1">
          <mxGeometry x="2159.5" y="1130" width="560" height="40" as="geometry" />
        </mxCell>
        <mxCell id="myLwM58ghnlwXmR5rfqZ-42" value="&lt;font style=&quot;font-size: 14px;&quot;&gt;&lt;b style=&quot;font-size: 14px;&quot;&gt;&lt;br&gt;&lt;/b&gt;&lt;/font&gt;" style="rounded=1;whiteSpace=wrap;html=1;fillColor=#FFCCCC;fontSize=14;fillStyle=auto;fontColor=#FFFFFF;glass=0;shadow=0;textShadow=0;" parent="1" vertex="1">
          <mxGeometry x="1629" y="1185" width="820.5" height="40" as="geometry" />
        </mxCell>
        <mxCell id="43MLDUuVcQ6IggmY8hbu-11" value="&lt;font style=&quot;font-size: 14px;&quot;&gt;&lt;b style=&quot;font-size: 14px;&quot;&gt;Localisation for Hub Operator and Participants: Currency, Timezone&lt;/b&gt;&lt;/font&gt;" style="rounded=1;whiteSpace=wrap;html=1;fillColor=#F16E81;fontSize=14;fontColor=#FFFFFF;" parent="1" vertex="1">
          <mxGeometry x="1449.5" y="1185" width="680" height="40" as="geometry" />
        </mxCell>
        <mxCell id="tU-XUtHsG_G0OqwH3F7m-2" value="" style="group" vertex="1" connectable="0" parent="1">
          <mxGeometry x="931.5" y="-200" width="1518.5" height="70" as="geometry" />
        </mxCell>
        <mxCell id="IgVnPN9NRSkrWdJgGA2A-110" value="Mojaloop Roadmap, as at 13th June&lt;span style=&quot;background-color: initial;&quot;&gt;&amp;nbsp;2024&lt;/span&gt;&lt;div&gt;&lt;span style=&quot;font-weight: normal;&quot;&gt;&lt;font style=&quot;font-size: 18px;&quot;&gt;(cross-hatched workstreams not yet formally adopted, but prioritised by Product Council)&lt;/font&gt;&lt;/span&gt;&lt;/div&gt;" style="text;html=1;strokeColor=none;fillColor=none;align=left;verticalAlign=middle;whiteSpace=wrap;rounded=0;fontSize=24;fontStyle=1" parent="tU-XUtHsG_G0OqwH3F7m-2" vertex="1">
          <mxGeometry y="20" width="720" height="50" as="geometry" />
        </mxCell>
        <mxCell id="tU-XUtHsG_G0OqwH3F7m-1" value="" style="group" vertex="1" connectable="0" parent="tU-XUtHsG_G0OqwH3F7m-2">
          <mxGeometry x="778.5" width="740" height="70" as="geometry" />
        </mxCell>
        <mxCell id="myLwM58ghnlwXmR5rfqZ-24" value="" style="rounded=0;whiteSpace=wrap;html=1;fillColor=#f5f5f5;fontColor=#333333;strokeColor=#666666;movable=1;resizable=1;rotatable=1;deletable=1;editable=1;locked=0;connectable=1;" parent="tU-XUtHsG_G0OqwH3F7m-1" vertex="1">
          <mxGeometry width="740" height="70" as="geometry" />
        </mxCell>
        <mxCell id="myLwM58ghnlwXmR5rfqZ-25" value="Key" style="text;html=1;strokeColor=none;fillColor=none;align=left;verticalAlign=middle;whiteSpace=wrap;rounded=0;fontSize=24;fontStyle=1" parent="tU-XUtHsG_G0OqwH3F7m-1" vertex="1">
          <mxGeometry x="10.5" y="10" width="66" height="20" as="geometry" />
        </mxCell>
        <mxCell id="myLwM58ghnlwXmR5rfqZ-32" value="" style="group" parent="tU-XUtHsG_G0OqwH3F7m-1" vertex="1" connectable="0">
          <mxGeometry x="90" y="10" width="600" height="40" as="geometry" />
        </mxCell>
        <mxCell id="myLwM58ghnlwXmR5rfqZ-31" value="&lt;font style=&quot;font-size: 16px;&quot;&gt;&lt;b style=&quot;font-size: 16px;&quot;&gt;Production-Ready&lt;br style=&quot;font-size: 16px;&quot;&gt;&lt;/b&gt;&lt;/font&gt;" style="rounded=1;whiteSpace=wrap;html=1;fillColor=#DDFFBF;fontSize=16;fontColor=#000000;align=right;spacingRight=50;" parent="myLwM58ghnlwXmR5rfqZ-32" vertex="1">
          <mxGeometry x="230" width="370" height="40" as="geometry" />
        </mxCell>
        <mxCell id="myLwM58ghnlwXmR5rfqZ-30" value="&lt;font style=&quot;font-size: 16px;&quot;&gt;&lt;b style=&quot;font-size: 16px;&quot;&gt;PoC/Pilot-Ready&lt;br style=&quot;font-size: 16px;&quot;&gt;&lt;/b&gt;&lt;/font&gt;" style="rounded=1;whiteSpace=wrap;html=1;fillColor=#8FD14F;fontSize=16;fontColor=#FFFFFF;" parent="myLwM58ghnlwXmR5rfqZ-32" vertex="1">
          <mxGeometry width="390" height="40" as="geometry" />
        </mxCell>
        <mxCell id="IgVnPN9NRSkrWdJgGA2A-14" value="PI 24&#xa;Ends: July 2024" style="rounded=0;fillColor=#3aadbc;movable=0;resizable=0;rotatable=0;deletable=0;editable=0;locked=1;connectable=0;fontColor=#ffffff;fontStyle=1;fontSize=16;" parent="1" vertex="1">
          <mxGeometry x="931" y="-110" width="809" height="60" as="geometry" />
        </mxCell>
        <mxCell id="IgVnPN9NRSkrWdJgGA2A-27" value="PI 25&#xa;Ends: November 2024" style="rounded=0;fillColor=#3aadbc;movable=0;resizable=0;rotatable=0;deletable=0;editable=0;locked=1;connectable=0;fontColor=#ffffff;fontStyle=1;fontSize=16;" parent="1" vertex="1">
          <mxGeometry x="1740.5" y="-110" width="649.5" height="60" as="geometry" />
        </mxCell>
        <mxCell id="IgVnPN9NRSkrWdJgGA2A-35" value="PI 26&#xa;Ends: March 2025" style="rounded=0;fillColor=#3aadbc;container=0;movable=0;resizable=0;rotatable=0;deletable=0;editable=0;locked=1;connectable=0;fontColor=#ffffff;fontStyle=1;fontSize=16;" parent="1" vertex="1">
          <mxGeometry x="2390" y="-110" width="330" height="60" as="geometry" />
        </mxCell>
        <mxCell id="V1w6IO33_B5uVDaUKKrJ-1" value="PI 27&#xa;Ends: July 2025" style="rounded=0;fillColor=#3aadbc;container=0;movable=0;resizable=0;rotatable=0;deletable=0;editable=0;locked=1;connectable=0;fontColor=#ffffff;fontStyle=1;fontSize=16;" parent="1" vertex="1">
          <mxGeometry x="2720" y="-110" width="330" height="60" as="geometry" />
        </mxCell>
      </root>
    </mxGraphModel>
  </diagram>
</mxfile>
